<svg width="239" height="253" viewBox="0 0 239 253" fill="none" xmlns="http://www.w3.org/2000/svg">
<rect width="239" height="253" fill="#242424"/>
<g filter="url(#filter0_d)">
<path d="M132.34 150.108V135.911C132.34 130.314 127.786 125.76 122.188 125.76C116.591 125.76 112.037 130.314 112.037 135.911V148.729C112.037 164.175 106.347 179.004 96.0138 190.485L81.7672 206.314C80.5702 207.644 80.6782 209.693 82.0082 210.89C83.3378 212.087 85.3862 211.979 86.5836 210.649L100.83 194.819C112.235 182.146 118.517 165.778 118.517 148.729V135.911C118.517 133.887 120.164 132.24 122.188 132.24C124.213 132.24 125.86 133.887 125.86 135.911V150.108C125.86 169.115 118.819 187.329 106.032 201.394L92.1451 216.67C90.9417 217.993 91.0393 220.043 92.3633 221.246C92.984 221.811 93.7637 222.089 94.5413 222.089C95.4225 222.089 96.3002 221.731 96.9395 221.028L110.826 205.752C124.699 190.492 132.34 170.73 132.34 150.108Z" fill="white"/>
<path d="M146.162 135.912C146.162 122.692 135.407 111.938 122.188 111.938C108.969 111.938 98.2139 122.692 98.2139 135.912V148.729C98.2139 160.754 93.7837 172.299 85.7392 181.238L75.6109 192.492C74.4139 193.822 74.5219 195.87 75.852 197.068C77.182 198.264 79.2299 198.156 80.4273 196.826L90.5556 185.572C99.6727 175.442 104.694 162.358 104.694 148.729V135.912C104.694 126.265 112.542 118.417 122.188 118.417C131.835 118.417 139.683 126.265 139.683 135.912V150.108C139.683 172.561 131.365 194.077 116.261 210.692L104.544 223.581C103.34 224.905 103.437 226.954 104.761 228.158C105.382 228.722 106.162 229 106.939 229C107.82 229 108.698 228.643 109.337 227.94L121.055 215.05C137.245 197.24 146.162 174.177 146.162 150.108V135.912V135.912Z" fill="white"/>
<path d="M159.986 135.911C159.986 115.07 143.03 98.1143 122.189 98.1143C101.347 98.1143 84.3915 115.07 84.3915 135.911V148.729C84.3915 157.333 81.2213 165.595 75.465 171.99L66.3453 182.123C65.1483 183.453 65.2563 185.502 66.5863 186.699C67.9159 187.896 69.9647 187.787 71.1617 186.458L80.2814 176.325C87.1103 168.738 90.871 158.937 90.871 148.729V135.911C90.871 118.643 104.92 104.594 122.189 104.594C139.457 104.594 153.506 118.643 153.506 135.911V150.107C153.506 176.007 143.911 200.825 126.489 219.989L123.246 223.557C122.043 224.881 122.14 226.93 123.464 228.133C124.085 228.697 124.865 228.976 125.642 228.976C126.523 228.976 127.401 228.618 128.04 227.915L131.283 224.348C149.792 203.988 159.985 177.623 159.985 150.107V135.911H159.986Z" fill="white"/>
<path d="M70.5684 135.911C70.5684 137.701 72.0189 139.151 73.8081 139.151C75.5973 139.151 77.0478 137.701 77.0478 135.911C77.0478 125.002 81.0085 114.464 88.2008 106.237C95.326 98.0876 105.105 92.758 115.737 91.2305C117.508 90.9761 118.737 89.3338 118.483 87.5631C118.228 85.7921 116.585 84.5644 114.815 84.8171C102.651 86.5649 91.4669 92.6573 83.3226 101.973C75.0979 111.38 70.5684 123.433 70.5684 135.911Z" fill="white"/>
<path d="M77.0466 148.729C77.0466 146.939 75.5961 145.489 73.8069 145.489C72.0177 145.489 70.5671 146.939 70.5671 148.729C70.5671 153.913 68.6574 158.89 65.1896 162.743L57.0777 171.757C55.8807 173.086 55.9887 175.135 57.3188 176.332C57.9382 176.889 58.7127 177.163 59.4851 177.163C60.3715 177.163 61.2548 176.802 61.8941 176.091L70.006 167.078C74.546 162.033 77.0466 155.516 77.0466 148.729Z" fill="white"/>
<path d="M167.448 177.649C165.717 177.198 163.947 178.233 163.494 179.963C162.298 184.533 160.81 189.076 159.071 193.466C158.411 195.129 159.226 197.012 160.889 197.671C161.281 197.826 161.684 197.899 162.082 197.899C163.371 197.899 164.591 197.124 165.095 195.852C166.93 191.219 168.5 186.426 169.763 181.603C170.215 179.873 169.179 178.102 167.448 177.649Z" fill="white"/>
<path d="M156.666 97.5237C155.335 96.3267 153.286 96.4364 152.09 97.7669C150.894 99.0973 151.003 101.146 152.333 102.342C161.863 110.909 167.328 123.144 167.328 135.912V150.108C167.328 155.496 166.957 160.925 166.224 166.245C165.98 168.018 167.219 169.653 168.991 169.897C169.141 169.918 169.29 169.928 169.437 169.928C171.03 169.928 172.419 168.752 172.642 167.129C173.415 161.517 173.808 155.79 173.808 150.107V135.912C173.808 121.309 167.56 107.317 156.666 97.5237Z" fill="white"/>
<path d="M141.52 95.1233C141.97 95.3376 142.443 95.4387 142.91 95.4387C144.121 95.4387 145.283 94.7566 145.838 93.5907C146.607 91.9756 145.921 90.0421 144.306 89.2732C139.638 87.0508 134.677 85.5514 129.56 84.8166C127.786 84.5639 126.147 85.792 125.893 87.5626C125.638 89.3333 126.868 90.9756 128.639 91.23C133.109 91.8724 137.442 93.1821 141.52 95.1233Z" fill="white"/>
<path d="M122.188 70.4688C120.976 70.4688 119.75 70.5024 118.544 70.569C116.757 70.6675 115.389 72.1957 115.487 73.9819C115.586 75.7685 117.113 77.1443 118.901 77.0381C119.989 76.978 121.095 76.9478 122.188 76.9478C154.7 76.9478 181.151 103.398 181.151 135.911V150.107C181.151 151.897 182.602 153.347 184.391 153.347C186.18 153.347 187.631 151.897 187.631 150.107V135.912C187.631 99.8264 158.274 70.4688 122.188 70.4688Z" fill="white"/>
<path d="M86.7643 88.0464C87.4023 88.0464 88.0473 87.8581 88.611 87.4663C94.001 83.7181 99.9207 80.9199 106.206 79.1475C107.928 78.662 108.931 76.8719 108.446 75.1501C107.96 73.4283 106.17 72.427 104.448 72.9108C97.4676 74.8788 90.8948 77.986 84.9121 82.1458C83.4429 83.1674 83.0801 85.1864 84.1017 86.6551C84.7311 87.5613 85.7393 88.0464 86.7643 88.0464Z" fill="white"/>
<path d="M63.2247 148.729V135.911C63.2247 120.84 68.9323 106.487 79.296 95.4944C80.5232 94.1924 80.4632 92.1423 79.1612 90.9147C77.8593 89.687 75.8087 89.748 74.5815 91.0495C63.0796 103.249 56.7452 119.181 56.7452 135.911V148.729C56.7452 150.492 56.0955 152.185 54.9163 153.495L50.9215 157.934C49.7245 159.264 49.8325 161.312 51.1625 162.509C51.7815 163.067 52.5565 163.341 53.3288 163.341C54.2152 163.341 55.0981 162.979 55.7379 162.269L59.7327 157.83C61.9845 155.328 63.2247 152.095 63.2247 148.729Z" fill="white"/>
<path d="M197.34 110.686C193.786 100.126 188.139 90.5865 180.555 82.3312C179.344 81.0137 177.295 80.9265 175.978 82.1373C174.66 83.3481 174.573 85.3973 175.784 86.7152C182.75 94.298 187.936 103.058 191.199 112.752C191.654 114.106 192.916 114.96 194.269 114.96C194.611 114.96 194.96 114.905 195.302 114.79C196.998 114.219 197.91 112.382 197.34 110.686Z" fill="white"/>
<path d="M147.791 60.8888C146.099 60.3095 144.257 61.2119 143.677 62.9052C143.098 64.5981 144.001 66.44 145.694 67.0188C152.838 69.4633 159.545 73.0045 165.629 77.5454C166.211 77.9795 166.89 78.1886 167.564 78.1886C168.552 78.1886 169.527 77.7389 170.163 76.8862C171.234 75.4525 170.938 73.4223 169.505 72.3523C162.879 67.4089 155.574 63.5514 147.791 60.8888Z" fill="white"/>
<path d="M71.8491 83.3881C85.4772 70.3216 103.355 63.1255 122.188 63.1255C125.685 63.1255 129.202 63.3773 132.64 63.8732C134.412 64.1315 136.053 62.9004 136.309 61.1294C136.565 59.3583 135.337 57.716 133.566 57.4603C129.821 56.9203 125.993 56.646 122.188 56.646C101.675 56.646 82.205 64.4823 67.3649 78.7112C52.5709 92.8961 43.9191 111.932 43.0033 132.311C42.923 134.099 44.307 135.613 46.094 135.693C46.1437 135.696 46.193 135.697 46.2422 135.697C47.9644 135.697 49.3981 134.34 49.4763 132.602C50.3165 113.893 58.2621 96.4153 71.8491 83.3881Z" fill="white"/>
<path d="M122.188 42.8228C114.943 42.8228 107.723 43.6625 100.73 45.3186C98.989 45.7307 97.9121 47.4767 98.3242 49.2176C98.7367 50.9584 100.483 52.0357 102.224 51.6232C108.728 50.0837 115.445 49.3022 122.188 49.3022C145.944 49.3022 168.119 58.767 184.628 75.9523C185.265 76.6145 186.114 76.948 186.965 76.948C187.773 76.948 188.581 76.6482 189.209 76.0448C190.5 74.805 190.541 72.7541 189.301 71.4642C180.7 62.51 170.595 55.4659 159.27 50.529C147.54 45.4154 135.063 42.8228 122.188 42.8228Z" fill="white"/>
<path d="M49.4144 83.1704C50.007 83.6343 50.7107 83.8594 51.4096 83.8594C52.3716 83.8594 53.3237 83.433 53.9625 82.617C63.1958 70.8235 75.3513 61.573 89.1146 55.8645C90.7673 55.179 91.5517 53.2835 90.8662 51.6308C90.1807 49.9781 88.2844 49.1928 86.6325 49.8792C71.8416 56.0136 58.7802 65.9527 48.861 78.6218C47.7578 80.0313 48.0057 82.0676 49.4144 83.1704Z" fill="white"/>
<path d="M77.2661 45.7279C77.7387 45.7279 78.2186 45.6242 78.6721 45.4048C92.3127 38.8186 106.953 35.4795 122.187 35.4795C130.126 35.4795 138.033 36.4134 145.687 38.2553C147.425 38.6726 149.176 37.603 149.594 35.8635C150.013 34.124 148.942 32.3741 147.202 31.9555C139.053 29.9944 130.636 29 122.187 29C105.97 29 90.3814 32.5559 75.8553 39.5698C74.2441 40.3477 73.5685 42.2847 74.3464 43.8959C74.905 45.0531 76.0618 45.7279 77.2661 45.7279Z" fill="white"/>
<path d="M159.228 42.5564C162.568 43.8864 165.874 45.4156 169.053 47.1007C169.537 47.3573 170.056 47.4787 170.567 47.4787C171.728 47.4787 172.851 46.8528 173.433 45.7551C174.27 44.1741 173.668 42.2134 172.087 41.3754C168.702 39.5815 165.182 37.9534 161.625 36.537C159.962 35.8748 158.078 36.686 157.416 38.3478C156.754 40.01 157.566 41.8947 159.228 42.5564Z" fill="white"/>
</g>
<defs>
<filter id="filter0_d" x="10" y="19" width="220.509" height="220" filterUnits="userSpaceOnUse" color-interpolation-filters="sRGB">
<feFlood flood-opacity="0" result="BackgroundImageFix"/>
<feColorMatrix in="SourceAlpha" type="matrix" values="0 0 0 0 0 0 0 0 0 0 0 0 0 0 0 0 0 0 127 0"/>
<feOffset/>
<feGaussianBlur stdDeviation="5"/>
<feColorMatrix type="matrix" values="0 0 0 0 1 0 0 0 0 1 0 0 0 0 1 0 0 0 1 0"/>
<feBlend mode="normal" in2="BackgroundImageFix" result="effect1_dropShadow"/>
<feBlend mode="normal" in="SourceGraphic" in2="effect1_dropShadow" result="shape"/>
</filter>
</defs>
</svg>
