<svg width="111" height="111" viewBox="0 0 111 111" fill="none" xmlns="http://www.w3.org/2000/svg">
<path d="M62.5158 67.2146V59.3358C62.5158 56.2292 59.9949 53.7019 56.8962 53.7019C53.7976 53.7019 51.2766 56.2292 51.2766 59.3358V66.4494C51.2766 75.0218 48.1265 83.2521 42.4063 89.6239L34.5195 98.4094C33.8568 99.1476 33.9166 100.284 34.6529 100.949C35.3889 101.613 36.5229 101.553 37.1858 100.815L45.0726 92.0297C51.3864 84.9962 54.8636 75.9117 54.8636 66.4494V59.3358C54.8636 58.2121 55.7754 57.298 56.8962 57.298C58.017 57.298 58.9288 58.2121 58.9288 59.3358V67.2146C58.9288 77.764 55.0308 87.8724 47.9525 95.6783L40.2646 104.157C39.5984 104.891 39.6524 106.029 40.3854 106.697C40.729 107.01 41.1606 107.164 41.5911 107.164C42.0789 107.164 42.5648 106.966 42.9187 106.575L50.6063 98.0973C58.2863 89.628 62.5158 78.6603 62.5158 67.2146Z" fill="white"/>
<path d="M70.1677 59.3359C70.1677 51.9991 64.214 46.0303 56.8959 46.0303C49.5777 46.0303 43.6241 51.9991 43.6241 59.3359V66.4495C43.6241 73.1236 41.1715 79.5312 36.7182 84.4919L31.1113 90.7378C30.4486 91.476 30.5084 92.6128 31.2447 93.2774C31.981 93.9417 33.1147 93.8813 33.7776 93.1436L39.3845 86.8977C44.4316 81.2755 47.2113 74.0135 47.2113 66.4495V59.3359C47.2113 53.982 51.5558 49.6264 56.8961 49.6264C62.2364 49.6264 66.5809 53.982 66.5809 59.3359V67.2147C66.5809 79.6762 61.9762 91.6177 53.6145 100.839L47.1281 107.992C46.4616 108.727 46.5156 109.865 47.2486 110.532C47.5922 110.846 48.0238 111 48.4543 111C48.9421 111 49.428 110.802 49.7819 110.411L56.2686 103.258C65.2315 93.3733 70.1677 80.5731 70.1677 67.2147V59.3359V59.3359Z" fill="white"/>
<path d="M77.8206 59.3357C77.8206 47.7687 68.4342 38.3584 56.8966 38.3584C45.359 38.3584 35.9726 47.7687 35.9726 59.3357V66.4493C35.9726 71.2249 34.2176 75.81 31.0309 79.3596L25.9823 84.9834C25.3197 85.7216 25.3795 86.8584 26.1158 87.523C26.8518 88.1873 27.986 88.1269 28.6487 87.3892L33.6972 81.7654C37.4777 77.5543 39.5595 72.1149 39.5595 66.4493V59.3357C39.5595 49.7516 47.3368 41.9545 56.8966 41.9545C66.4564 41.9545 74.2337 49.7516 74.2337 59.3357V67.2146C74.2337 81.5889 68.9221 95.363 59.2772 105.999L57.482 107.979C56.8158 108.714 56.8698 109.851 57.6028 110.519C57.9464 110.832 58.3783 110.986 58.8085 110.986C59.2963 110.986 59.7822 110.788 60.1361 110.398L61.931 108.418C72.1774 97.1184 77.8204 82.4856 77.8204 67.2146V59.3357H77.8206Z" fill="white"/>
<path d="M28.3198 59.3358C28.3198 60.329 29.1228 61.1338 30.1133 61.1338C31.1038 61.1338 31.9068 60.329 31.9068 59.3358C31.9068 53.2811 34.0994 47.4324 38.0809 42.8668C42.0254 38.3436 47.4391 35.3857 53.3246 34.5379C54.3051 34.3967 54.9856 33.4852 54.8448 32.5025C54.7039 31.5196 53.7941 30.8382 52.8146 30.9785C46.0806 31.9485 39.889 35.3298 35.3804 40.5C30.8274 45.7209 28.3198 52.4104 28.3198 59.3358Z" fill="white"/>
<path d="M31.9066 66.4493C31.9066 65.4561 31.1035 64.6512 30.1131 64.6512C29.1226 64.6512 28.3196 65.4561 28.3196 66.4493C28.3196 69.3267 27.2624 72.0887 25.3426 74.2272L20.852 79.2299C20.1893 79.9678 20.2491 81.1046 20.9854 81.7692C21.3283 82.0785 21.7571 82.2307 22.1847 82.2307C22.6754 82.2307 23.1644 82.0298 23.5183 81.6354L28.0089 76.633C30.5222 73.8331 31.9066 70.2166 31.9066 66.4493Z" fill="white"/>
<path d="M81.9521 82.5003C80.9934 82.25 80.0139 82.8242 79.7628 83.7846C79.1007 86.3208 78.2771 88.8421 77.3141 91.2784C76.9492 92.2016 77.4 93.2467 78.3209 93.6123C78.5378 93.6983 78.7611 93.7391 78.9811 93.7391C79.6949 93.7391 80.37 93.3088 80.649 92.603C81.6651 90.0317 82.5344 87.3713 83.2331 84.6949C83.4837 83.7345 82.91 82.7518 81.9521 82.5003Z" fill="white"/>
<path d="M75.9823 38.0306C75.2456 37.3662 74.1116 37.4271 73.4495 38.1655C72.7873 38.9039 72.8476 40.0408 73.5841 40.7046C78.8596 45.4592 81.8851 52.2498 81.8851 59.3358V67.2147C81.8851 70.205 81.6794 73.2183 81.2736 76.1712C81.1385 77.155 81.8243 78.0622 82.8055 78.1977C82.8885 78.2092 82.971 78.2147 83.0525 78.2147C83.9344 78.2147 84.7032 77.5621 84.8268 76.6617C85.2549 73.5467 85.472 70.3682 85.472 67.2144V59.3358C85.4723 51.2314 82.0132 43.466 75.9823 38.0306Z" fill="white"/>
<path d="M67.5977 36.6985C67.8467 36.8174 68.109 36.8735 68.3675 36.8735C69.0378 36.8735 69.6808 36.4949 69.9881 35.8479C70.414 34.9515 70.034 33.8784 69.1399 33.4517C66.5558 32.2182 63.8094 31.386 60.9769 30.9782C59.995 30.838 59.0875 31.5196 58.9467 32.5023C58.8058 33.485 59.4864 34.3965 60.4668 34.5377C62.9414 34.8942 65.3403 35.6211 67.5977 36.6985Z" fill="white"/>
<path d="M56.8965 23.0151C56.2255 23.0151 55.5468 23.0338 54.8789 23.0708C53.8899 23.1254 53.1323 23.9736 53.1868 24.9649C53.2416 25.9565 54.0867 26.7201 55.0765 26.6611C55.6788 26.6278 56.291 26.611 56.8963 26.611C74.8947 26.611 89.5377 41.291 89.5377 59.3356V67.2145C89.5377 68.2077 90.3407 69.0125 91.3312 69.0125C92.3217 69.0125 93.1247 68.2077 93.1247 67.2145V59.3359C93.1249 39.3086 76.8728 23.0151 56.8965 23.0151Z" fill="white"/>
<path d="M37.2864 32.7708C37.6396 32.7708 37.9966 32.6663 38.3087 32.4489C41.2926 30.3686 44.5697 28.8156 48.0493 27.8319C49.0027 27.5625 49.5577 26.569 49.2889 25.6134C49.0201 24.6578 48.0289 24.102 47.076 24.3705C43.2116 25.4628 39.573 27.1873 36.261 29.496C35.4477 30.0629 35.2469 31.1835 35.8124 31.9986C36.1608 32.5016 36.719 32.7708 37.2864 32.7708Z" fill="white"/>
<path d="M24.2552 66.4492V59.3357C24.2552 50.9711 27.4149 43.005 33.1521 36.9043C33.8315 36.1817 33.7983 35.0439 33.0775 34.3626C32.3568 33.6812 31.2216 33.715 30.5422 34.4374C24.1749 41.2079 20.6682 50.0505 20.6682 59.3357V66.4492C20.6682 67.4281 20.3086 68.3676 19.6558 69.0948L17.4443 71.5581C16.7816 72.2963 16.8414 73.4331 17.5777 74.0975C17.9204 74.407 18.3494 74.5592 18.7769 74.5592C19.2676 74.5592 19.7564 74.3585 20.1106 73.9642L22.3221 71.5008C23.5687 70.1118 24.2552 68.3178 24.2552 66.4492Z" fill="white"/>
<path d="M98.4991 45.3359C96.532 39.4752 93.4059 34.1805 89.2074 29.5989C88.5371 28.8677 87.4027 28.8192 86.6733 29.4912C85.944 30.1632 85.8959 31.3005 86.566 32.032C90.4225 36.2404 93.2937 41.1023 95.0996 46.4826C95.3517 47.2337 96.0504 47.7077 96.7991 47.7077C96.9888 47.7077 97.1817 47.6772 97.3714 47.6132C98.31 47.2965 98.815 46.2769 98.4991 45.3359Z" fill="white"/>
<path d="M71.0694 17.6982C70.1327 17.3767 69.1126 17.8775 68.7919 18.8173C68.4712 19.7568 68.971 20.7791 69.9082 21.1003C73.8629 22.457 77.5759 24.4224 80.9441 26.9426C81.2662 27.1835 81.6424 27.2996 82.0154 27.2996C82.5621 27.2996 83.102 27.05 83.4543 26.5767C84.0468 25.781 83.8833 24.6543 83.0896 24.0604C79.422 21.3168 75.3778 19.1759 71.0694 17.6982Z" fill="white"/>
<path d="M29.0292 30.1853C36.5735 22.9333 46.4702 18.9395 56.8961 18.9395C58.8322 18.9395 60.7789 19.0793 62.6822 19.3545C63.6633 19.4979 64.572 18.8146 64.7136 17.8317C64.8552 16.8487 64.1753 15.9372 63.1949 15.7953C61.1221 15.4956 59.0029 15.3434 56.8961 15.3434C45.5405 15.3434 34.7621 19.6925 26.5467 27.5896C18.357 35.4622 13.5674 46.0268 13.0604 57.3376C13.016 58.3296 13.7821 59.1701 14.7714 59.2145C14.7989 59.2159 14.8262 59.2164 14.8534 59.2164C15.8069 59.2164 16.6005 58.4636 16.6438 57.4991C17.1089 47.1155 21.5075 37.4154 29.0292 30.1853Z" fill="white"/>
<path d="M56.8964 7.67163C52.8857 7.67163 48.8891 8.13769 45.0178 9.05685C44.0539 9.28556 43.4577 10.2546 43.6858 11.2208C43.9142 12.1869 44.8808 12.7848 45.8445 12.5559C49.4453 11.7014 53.1636 11.2677 56.8964 11.2677C70.0477 11.2677 82.3238 16.5207 91.463 26.0585C91.8152 26.4261 92.2853 26.6111 92.7567 26.6111C93.2036 26.6111 93.6513 26.4448 93.999 26.1098C94.7132 25.4218 94.7362 24.2835 94.0499 23.5676C89.2881 18.5981 83.6945 14.6886 77.425 11.9486C70.9311 9.11055 64.0243 7.67163 56.8964 7.67163Z" fill="white"/>
<path d="M16.6097 30.0645C16.9378 30.322 17.3273 30.4469 17.7143 30.4469C18.2468 30.4469 18.7739 30.2103 19.1275 29.7574C24.239 23.212 30.9681 18.0779 38.5873 14.9098C39.5023 14.5293 39.9365 13.4773 39.557 12.5601C39.1775 11.6428 38.1277 11.207 37.2133 11.5879C29.0252 14.9925 21.7946 20.5087 16.3034 27.54C15.6926 28.3223 15.8299 29.4524 16.6097 30.0645Z" fill="white"/>
<path d="M32.0275 9.28396C32.2891 9.28396 32.5548 9.22642 32.8059 9.10464C40.3572 5.44931 48.4621 3.59611 56.8955 3.59611C61.2903 3.59611 65.6674 4.11443 69.9045 5.13669C70.867 5.36828 71.836 4.77468 72.0677 3.80924C72.2994 2.8438 71.7066 1.87262 70.7434 1.64031C66.232 0.551883 61.5727 0 56.8955 0C47.9176 0 39.288 1.97355 31.2465 5.86622C30.3546 6.29799 29.9806 7.37299 30.4112 8.26722C30.7204 8.90949 31.3608 9.28396 32.0275 9.28396Z" fill="white"/>
<path d="M77.4011 7.52371C79.25 8.26187 81.0801 9.11055 82.8404 10.0458C83.108 10.1882 83.3954 10.2556 83.6785 10.2556C84.3213 10.2556 84.9428 9.90817 85.2647 9.29899C85.7284 8.42154 85.395 7.33336 84.5198 6.86826C82.6457 5.87262 80.697 4.96903 78.728 4.18292C77.8076 3.8154 76.7647 4.26563 76.3982 5.18792C76.0318 6.11044 76.4809 7.15643 77.4011 7.52371Z" fill="white"/>
</svg>
